<mxfile host="app.diagrams.net" modified="2023-07-13T11:45:25.979Z" agent="Mozilla/5.0 (Windows NT 10.0; Win64; x64) AppleWebKit/537.36 (KHTML, like Gecko) Chrome/114.0.0.0 Safari/537.36" etag="dwzpU-2K2S_dwbOBMDw8" version="21.6.1" type="github">
  <diagram name="第 1 页" id="yHBMxFlUSX2MlfSCqrbp">
    <mxGraphModel dx="1674" dy="884" grid="1" gridSize="10" guides="1" tooltips="1" connect="1" arrows="1" fold="1" page="1" pageScale="1" pageWidth="827" pageHeight="1169" math="0" shadow="0">
      <root>
        <mxCell id="0" />
        <mxCell id="1" parent="0" />
        <mxCell id="EsOgVO5uXjzXIoeNXMzV-1" value="snode存储" style="rounded=0;whiteSpace=wrap;html=1;" vertex="1" parent="1">
          <mxGeometry x="60" y="470" width="120" height="60" as="geometry" />
        </mxCell>
        <mxCell id="EsOgVO5uXjzXIoeNXMzV-2" value="anode" style="rounded=0;whiteSpace=wrap;html=1;" vertex="1" parent="1">
          <mxGeometry x="60" y="350" width="120" height="60" as="geometry" />
        </mxCell>
        <mxCell id="EsOgVO5uXjzXIoeNXMzV-3" value="tsql" style="rounded=0;whiteSpace=wrap;html=1;" vertex="1" parent="1">
          <mxGeometry x="130" y="200" width="120" height="60" as="geometry" />
        </mxCell>
        <mxCell id="EsOgVO5uXjzXIoeNXMzV-4" value="thanos-query" style="rounded=0;whiteSpace=wrap;html=1;" vertex="1" parent="1">
          <mxGeometry x="210" y="350" width="120" height="60" as="geometry" />
        </mxCell>
        <mxCell id="EsOgVO5uXjzXIoeNXMzV-5" value="thanos-store" style="rounded=0;whiteSpace=wrap;html=1;" vertex="1" parent="1">
          <mxGeometry x="210" y="480" width="120" height="60" as="geometry" />
        </mxCell>
        <mxCell id="EsOgVO5uXjzXIoeNXMzV-6" value="OCS" style="rounded=0;whiteSpace=wrap;html=1;" vertex="1" parent="1">
          <mxGeometry x="360" y="570" width="120" height="60" as="geometry" />
        </mxCell>
        <mxCell id="EsOgVO5uXjzXIoeNXMzV-7" value="" style="endArrow=classic;html=1;rounded=0;entryX=0.575;entryY=-0.05;entryDx=0;entryDy=0;entryPerimeter=0;exitX=0.5;exitY=1;exitDx=0;exitDy=0;" edge="1" parent="1" source="EsOgVO5uXjzXIoeNXMzV-4" target="EsOgVO5uXjzXIoeNXMzV-5">
          <mxGeometry width="50" height="50" relative="1" as="geometry">
            <mxPoint x="350" y="450" as="sourcePoint" />
            <mxPoint x="440" y="340" as="targetPoint" />
          </mxGeometry>
        </mxCell>
        <mxCell id="EsOgVO5uXjzXIoeNXMzV-15" value="store api" style="edgeLabel;html=1;align=center;verticalAlign=middle;resizable=0;points=[];" vertex="1" connectable="0" parent="EsOgVO5uXjzXIoeNXMzV-7">
          <mxGeometry x="-0.1672" y="-1" relative="1" as="geometry">
            <mxPoint as="offset" />
          </mxGeometry>
        </mxCell>
        <mxCell id="EsOgVO5uXjzXIoeNXMzV-8" value="" style="endArrow=classic;html=1;rounded=0;exitX=0.5;exitY=1;exitDx=0;exitDy=0;entryX=0.5;entryY=0;entryDx=0;entryDy=0;" edge="1" parent="1" source="EsOgVO5uXjzXIoeNXMzV-3" target="EsOgVO5uXjzXIoeNXMzV-4">
          <mxGeometry width="50" height="50" relative="1" as="geometry">
            <mxPoint x="350" y="450" as="sourcePoint" />
            <mxPoint x="400" y="400" as="targetPoint" />
          </mxGeometry>
        </mxCell>
        <mxCell id="EsOgVO5uXjzXIoeNXMzV-9" value="" style="endArrow=classic;html=1;rounded=0;entryX=0.5;entryY=0;entryDx=0;entryDy=0;exitX=0.45;exitY=1;exitDx=0;exitDy=0;exitPerimeter=0;" edge="1" parent="1" source="EsOgVO5uXjzXIoeNXMzV-3" target="EsOgVO5uXjzXIoeNXMzV-2">
          <mxGeometry width="50" height="50" relative="1" as="geometry">
            <mxPoint x="10" y="350" as="sourcePoint" />
            <mxPoint x="60" y="300" as="targetPoint" />
          </mxGeometry>
        </mxCell>
        <mxCell id="EsOgVO5uXjzXIoeNXMzV-10" value="" style="endArrow=classic;html=1;rounded=0;exitX=0.5;exitY=1;exitDx=0;exitDy=0;entryX=0.5;entryY=0;entryDx=0;entryDy=0;" edge="1" parent="1" source="EsOgVO5uXjzXIoeNXMzV-2" target="EsOgVO5uXjzXIoeNXMzV-1">
          <mxGeometry width="50" height="50" relative="1" as="geometry">
            <mxPoint x="350" y="450" as="sourcePoint" />
            <mxPoint x="400" y="400" as="targetPoint" />
          </mxGeometry>
        </mxCell>
        <mxCell id="EsOgVO5uXjzXIoeNXMzV-14" value="grpc" style="edgeLabel;html=1;align=center;verticalAlign=middle;resizable=0;points=[];" vertex="1" connectable="0" parent="EsOgVO5uXjzXIoeNXMzV-10">
          <mxGeometry x="-0.12" y="2" relative="1" as="geometry">
            <mxPoint as="offset" />
          </mxGeometry>
        </mxCell>
        <mxCell id="EsOgVO5uXjzXIoeNXMzV-11" value="thanos-compact" style="rounded=0;whiteSpace=wrap;html=1;" vertex="1" parent="1">
          <mxGeometry x="140" y="570" width="120" height="60" as="geometry" />
        </mxCell>
        <mxCell id="EsOgVO5uXjzXIoeNXMzV-12" value="" style="endArrow=classic;html=1;rounded=0;exitX=1;exitY=0.5;exitDx=0;exitDy=0;entryX=0;entryY=0.5;entryDx=0;entryDy=0;" edge="1" parent="1" source="EsOgVO5uXjzXIoeNXMzV-11" target="EsOgVO5uXjzXIoeNXMzV-6">
          <mxGeometry width="50" height="50" relative="1" as="geometry">
            <mxPoint x="350" y="450" as="sourcePoint" />
            <mxPoint x="400" y="400" as="targetPoint" />
          </mxGeometry>
        </mxCell>
        <mxCell id="EsOgVO5uXjzXIoeNXMzV-13" value="" style="endArrow=classic;html=1;rounded=0;entryX=0.583;entryY=-0.033;entryDx=0;entryDy=0;entryPerimeter=0;exitX=1;exitY=0.5;exitDx=0;exitDy=0;" edge="1" parent="1" source="EsOgVO5uXjzXIoeNXMzV-4" target="EsOgVO5uXjzXIoeNXMzV-6">
          <mxGeometry width="50" height="50" relative="1" as="geometry">
            <mxPoint x="340" y="420" as="sourcePoint" />
            <mxPoint x="390" y="370" as="targetPoint" />
          </mxGeometry>
        </mxCell>
        <mxCell id="EsOgVO5uXjzXIoeNXMzV-16" value="" style="shape=image;verticalLabelPosition=bottom;labelBackgroundColor=default;verticalAlign=top;aspect=fixed;imageAspect=0;image=data:image/png,iVBORw0KGgoAAAANSUhEUgAAA3kAAAIlCAYAAABoyzHtAAAgAElEQVR4nOzdf0ybd4Lv+08vo/UKKaxyFUY9Cqgrh8sV0EqE9MhJc+XS7CE/dsiPO46YG2cZlYxnQzfVIZMsbMKGm+aGJRmzZMqcZofseEo1TJyzKK4S8ExC2JNSS5nEUkOs2xLrcKh1qhAddEAbLbkH7bM6EfcPGzDGpPw2efJ+SZFa+8vjr5/v48f+PN8fzyvj4+PjAgAAAACYwv+S6goAAAAAAJYOIQ8AAAAATISQBwAAAAAmQsgDAAAAABMh5AEAAACAiRDyAAAAAMBECHkAAAAAYCKEPAAAAAAwEUIeAAAAAJgIIQ8AAAAATISQBwAAAAAmQsgDAAAAABMh5AEAAACAiRDyAAAAAMBECHkAAAAAYCKEPAAAAAAwEUIeAAAAAJgIIQ8AAAAATISQBwAAAAAmQsgDAAAAABMh5AEAAACAiRDyAAAAAMBECHkAAAAAYCKEPAAAAAAwke+kugKLMeyrlO1kIMkz39Me/VYdc9zOW/s36/dX782xdIUaXK2q9cyxuG2f3gpe0+/nWHzPbqmj88Xb9sHDdl2+lKwtklnO9qHtV3rbL0LbF58L6GPHujluZ5kM+XTIXqeeJE+tmra3/7kOBv5el+dYfPV8NvncL3rbtH0SKWp7+1kFPQ5lznE7q0Fqfo+ZsO1XetsvxOe+Qlf7q1U0x+1gCj15AAAAAGAir4yPj4+nuhILFb1ytIGED2AWITXkOjWwinrycq48VO2m1FYFJsJxZSq97nzt739Re/L4PYalxXG1OPTkAQAAAICJEPIAAAAAwEQIeQAAAABgIoQ8AAAAADARQh4AAAAAmAghDwAAAABMhJAHAAAAACZCyAMAAAAAEyHkAQAAAICJEPIAAAAAwEReGR8fH091JQAAAAAAS4OePAAAAAAwEUIeAAAAAJgIIQ8AAAAATISQBwAAAAAmQsgDAAAAABMh5AEAAACAibzQIW/YVylrbqN6U10RAKtUSA25+TrkG0l1RaQhnw7l5qvhfqorAlPhuDKVXne+rC6fhlNdkXni9xiWA8fV4rzQIQ8AAAAAMB0hDwAAAABMhJAHAAAAACZCyAMAAIs0oo4qm6yFDjXdN1JdGQB46RHyTCG6uIQ1/p87lOpKzcGI2l0J9V5lE86jk35Z1AB4Idxv5POaKkOf69qNp9JYWBf/U3iefxz7Dltl539guU38xpj6V6n2oVTXCmZByEti+L5PDUccshXGPnS2Ur3n9qmXD96cjYb90/Zhnt2h99x+9Y2mumYp8mxEdz01OrjXrrzcfFlzbdp+pFHt92dZ9XE0pItHHLI1vwhhHakw88dB9Fy1+0ijOsJPU129JTaojpoKba8iBKyIZ0/V52/Ue98vVWFuvqy5G2U7UCPP7YhGn83yN6++rX271kjpeTryJ3krWl1g+SS5iJ5r0/aKGnnurIJVm4HnIOTFezaorpOlsh2ok6c7rOGx2ONPIury1Gn/qdX6A6NQtf0PFel/qEi/V66U1sVQb7NDtr010/ahMRRWl6dGu1viQ8s6lXkm6h3QeXtKKrz8hrp14nt2HXT7dTc8ouhApqca6G7ViQP25L0OY1/rfndYw4x6wnw8iaivu1VH99p1yDeY6tosoRF9dS2ogf+R6nq8BIywPH9m1+5jrer6KqLodTlDw/f9aqgs1dFrs/2wXac9zUFFQj4d32RZufoCK+6pBu741VBRsujzbKajJfYb6KGC58z6Iwip8p1UV2D1MNT7UaXe80WktTYdP1ensq1WZVokPTP0KORX23/ii+vbDF+r0sGLYRnphTpyoV4/nLYPfbr4/6a6hiuv99c1ao9YVHSkRT/7sU3Z6dHHjeGI7ra71ZeW2vrhRWbX+UCLyl6N/e/YiPpuNOsnJ33qOVmv9q1xzwFzMOxvVsN9QzmOs/rZsVIVZMa+98YG1XvtE13naxAvI/tZBT0OZUrRnu5r7uh59uwV9e6rVhHf41iF6Mmb8I1PDRcjUrpd5z9t1ZFtsXAiSWkWZW9yqLamNPoBjxMdljgxpCVfhTsrdNoXTj6kJTZkb799Y7TLv9Cu3Ucu6e4sw0BHwz6drpja9pKO2x4KylPjnBxOWbizShcXO/TgWVjtzQEZsur4b7w6PmMfOnW+onBxr5FQ7zy7Q+9dDGo4cX/POjcnNg8w2dyP0bA63FXaPdE+uTaVNgcXV1+NaKDfkGRT2Q+mAp4kWTKtKj7SoiOTuyRuWIi9Tj2S5HHOaPsZ72kex1WvO3/yxqKjYZ9OH4gNH7U5ddoX0YyOw6GQ2uP3SaH9+cMBh4LRYaaFyY7ZmXUfvtOqowfih7DO/nnAHKSvU4HjrM5USFJAA4+nnpp3208M2dtpixuiVK/2hLafuHnzo8fdOrF3o6y5Nr13bVAaC+limU3WXJsOtoZnbP/b2z5+zq5THkkK1MmWcEzNdqP70bBPp8tidbc5ddQ7sw6xgupwV2m7beKc4pzlHB77fCaZ7xwdOpvknPxsRL2+uH0Y+2z2fLN6u+gffR2QJBXvd0wFPElKz1KR85TOlK6b/gexc+1zz1EJhu+06mjcd1ue/d+rfbbCc26fmImh8XH7fP8HvqRTBRKnZjxvWsG8Pz8wr7Q1KnAclmuzpLGvNRD3Y2LWc8Fzzh/zknhefs7xDRDyYgYCPvVKKqo5pbL1c/ubR77K2LDEiSEt0mgkqLaTDtmO+PQo/ktoLKSG2JC93qHY18HYiPq6m3XQXqqGhNXIjPuN2r+3Tm13pra9VIxwq/bvrFDDtdDkcMrRSLeaKuza3hxa+JfVl7f00WNJzhq5Xl+iysYx7jdqu316vY2hsLqaK2T7XqN6x57/98/12K/3Shw66ulW30T76KmGhxb71b1OObkWSQF5fhmYGUYXa57H1YSBa1Wy761T2/3Y8NEnIbWddOivbsT/gA+pwe7Uifh9MjYSGw54WG2RhI0+9unQzgo1xQ91npWhPo9T9opGddyPH8IarXdTiJ9MC2fIMCTJIkuSq8tzavtng2o/EhuyF5l4/KkG7nh1ItlQ0K+DajpdpfawIempupov6fSpCjWFnkp6qrvnWtUzeSJb/rYf+HXsPYZidX8SUscHzoTjW9Gh1GXRz/3Ak1jthkKxc7h/kcPzn6qrukT7T8btw9hn89DZxW57+WRviA4Za/uldxl+OEaH89srGtUR991mDI0k/56bb/vEnQ/vxu3zXm9dwlQBSfcbZ0zNmJxW4PJqYJZz9dzOnTC/f5Xx/0X/6w9XrBdvRF2nDkw/L08c3/ZKdXCBFAkIeZIkQ4NfhyVl6Z2NWZOPRq/czbLy45BPp08GZKTbdebTgMLh6JjqcHeLyq2ScbteF28/ndx+70c18kSknPIWfR6KzUP7MqDOOrssisjz114NTL7yoNp/2qqB9EIdab0V3Xb4gYKfnlJxumTZ5lawf4HDsJ6F5flJo3pl1/Ert6bq/ZlXx7dZNHDRrfZvFrYXh7+OXikvfiNfSz6ixwip6S9bNSCrylvi6n3HpzPbLFKkVSe8ialjrp6qw12jridrtOMDn4Jfxton/ECddbZFV73o/VYdybNooK1StrecOuoJTP5gmS5ubmXgrIolyeWdHK8/8a9200T5+R5XE1p1oiag7LKz6gxG/yb06wrlyFBH971pP7b+aGuFzl+5pdDkPgnGth2Spzt+BT1Ddz+uV8+YVWXnfAolfB5kPayrX8bVPfyJfuIOSduqdPWzB5P7+/MrVSpOj+hig0+PFr3nX0Jjg+r11qvBK2l9pXa+kVhgbm0/fK1eJ24bsmw7pc47ce3T4lSODPWcvaSu+APlsV8dXzj18RcPdblC0mOf2m7bdP6zh7p1Mk9St76a+HjOue3j5+zG5hrbzyqY8Hn42JHQsySp50a3jG2npt6jp0LZMtRx/fO4YPBUXe4atUesKr/gnzxmI0G/Piy3yrhdp4/uLCJwDn+uf/AbkqN52jkleLNFx3NX75jHzH2n9OGuNTJu12u33a5Dbp96Hz9nP2yqnmqPKxXP3/hXn+gnF8NSXoU+7n4w+XfhL1pUPqPwfNvnqbpOVUTPh45TCcfWKZUlDsNRhra4zupqd3Dy+yQSjH2fhD5RV3+yNzD3cydMbGxQd5tPqeEryVLqUPGMY2t5jN5w66gvopxyt24Fp76Tb11wKmcsoL/6ZZAeZUxDyJMkPdV/H5QkqzLXzu0vBrq96pFF5T9vVvnr6yavmFtes+vM351SkQy133kQ/cAZQV33DEqFp/R3tfapIXuWdSoob9YvnBYp4tfdyYwyokchSW879eOtWdFtp1mU+bpTP3ZIxu3wwn8A9wfUHpF21DfqyKasqXqvL9SRmmoVKKTPHqy+FaOMoF+ex1JR3c91ZltcvTPzVH6hWeXp0sDv7iUJNHMwdEvXbkiW8p/rQ2fetCGm301fgh9j6YU6/mlAnRcqVGwJq8Ndqe22jbJVLnLY1ryPqwlZ2uPuVGe9QwWx4z1jc4l2pEsaHY37kijUkdZqlW3KUsbkPlmjgpISbZH06J+n/8B69I0hZe5WuSNPGXGfB9cPC6VIeFqw7Qv4NKAS/fTcYRWtj208zaLsTYdVezxPCgX0YLV2dawqAZ2wx12IKtyu/R/4NJBeqOP/4V0VzLjCPJe2j+jm5YCU7tQvLjinhuylWZS97ZT+rq5QGvPp9wk9bsV1lSrOkHJyoz1BRcdrVLZe+qOMTEmGjFjPyEq0fcYut25ddE69R3tpdITG/4yr8+g93fAbyq5q1JlS6+Qxq7VW7ampUbkMtX8x31sBxFciM/qZfBDQZxNX3dMsyrTadSTJ0P9VIy1Le5qDCrZWa0+uoR5Pnfa/s1GFZfVqCy3uu6H3dy16pELV/rxaxa9NnVstGRkzLwzOt32GbkVDtf2sflXvTDi2kkwV2HRYl2scKnptzVSP99o87SyxSRrUPycdjTDXcydMJ36oeOF2HbwYkvIO63J9iTJWpAJPdbfbL2N9lX5WW6qcid+qaWuUU1qtWqdk+O6pb0XqghcFC6/E/OF3JGlYRtyJvajmoSI1UnQsdWxOSMzofwtLKtVbhUlCgDVfRZJ6B4c1KinzybAeScr+k43KmfGjy6KCN2ySAnr0ZOqxP1ov6XOv2u5vlqtwnSwyNBz6RE0+Sa+vX/BJZfg/P9AjSY+O2WQ9lryM5ZtBSTOvjqfS6PCgpCy986Z15pPp+Sp4U1Lg8cKupD6OqEdS8Rsblr4HckLaGhWUVuvj0mqNRgJq/6hZTf5mHbrdKdcVn2oXshrdvI+rCVa9tTkr4bFCHQ891PGER41vAmq72Kr2z4Oz9D5Ovd4fZUga7lSbv0RndlllSZOMfr8u/jokyanvTl5AGdHXDwYlDeqoLV9Hk24vov/yWFq9v4RXpwyrTcX7K/R+mV05SU8Sc2n7UT36SlKpTUXpmiEnf6OkkB4NP5UmPzF27dwaf86wq6wkyWd1hdq+7Ielyp72mchU5obEl3moLklGs0PW5lk2FB7UsAoXVhWLTbW/OqzeH13Sib0+nX61UDscDv1wf+lUAFnFMrdW6MOtFfrp45CuX25Wg8er02U+fXauUx87Eo+huYjNT063qeC1ORSfb/tMnMdL305o+9kYenTbq6Y2n3rmPC1i7udOmFtmWbP8Z0qUuWJDNb/WV7cljTVrd96sHwgNDktFfG8ihp48SdI6ZeVZJIX1+4fzGVefIcs8vqsz5twrlCdXvVOZYyE1HbArLy9f1ryNsh1oVu+YVa6/dihnHrWcZqnnhMXJyIx++fV8+XCZrmiumepRWgYZ82nMxbyO1S7XBZ+Cv65QjiLy/Ojn6l1Eu8z9uJofI9Ss3SWVarj2bQFPktZoR9UpbVFE7cdKo8dsbr7ySqMrixafe1fFcdX8l/+5LFV+Cdl1PjA1dDF0s1UfumYLePOUYVmWix6rpu2f/euy97xYNlWp835AnRdOqeyNUfVcjPWKVfmnz9lexSzrC1VW06pQ91kVpxvRVVsXM/dn7R/O7bhaYPvM7TwenRv4duX0uYHArCaGisemLIy2V+lg0yLWMFgAYzHrDuClRE9eTMGbDlnkVddHXvXtOpxkmNN0lj/KkuTTZ19Uq3hrwpdK5KF6JVlyN0SvMKZnKENST+c9PSq3KntaYUN9XwYl2ZUzueDLiLrafBq22rTj3wzr7p2IRrVGOVt3y1VTpbK8hf/0yvzjDZICKvc80Bn70v6Es7xRqB3yqsvr1fUf2+e8gM2ctp2eISmg6/cGVW5NuJI69lB9X0iyJ+5baeDRiLRpqofB6L+lm19IejOuUHqGsiV9PTIsac3U488G9Vn3YlfXnF3G5gNybW7ViXvR1bmK5jvHct7H1XwYunvtkgZkUXGdVz8tixvGOuTToYnVP+PK917z6m56oYq3Guq7E9bwmEWZeXb9sKZOR6b18qxTTq6kgFMff3lqWvjDahAbSXAtoN6Tdm1JaJ+Bhw8kWZTzxwvp7V9Fbb/eqmJJw3V+dZYn63WcRSShd28sopvdQUmzzN9NW6eCUqfOlDp15tmIehre1aG2GjXtfFsf7lqT/G9Wo9cc+vEP6tTTGlu1dd5zwmO9/Y+Ho/f/jGt74353wvlE82+ftetVIKkr+EDGLvvzg6QR1PXYatpnflOvsrypKRfDvkrZTgbm/rbwcklbo4Lyep353K4Tnho1/UlnkpE4QT0a0rTPyHDAP/MYn5cs5dgl/dMp3frUufAL/Xip0JMXY9nsVG2hpEiz9v9Zs3oiI5NzSGTMHGtfsNWhbBlqO1ajtq+myo5+5dOJv6hXr7L0/p/G5gBkbNa2XZJCjfqLcwE9mrgaYwzqbnOF3vMa0q5S7Zw4IQx9rmu3DW05WKOfXriiwJcPFekP6lbrKZXlLfJHwet2ladLbdU18twf1OhSXoZaW6Ifu7IkBXTi+xW6eCdu+8ZTPbrv1YnWhS0fnLHZrh2Set1Varg9OLm/jcdBNf2oSm1j0o5926d+eMWCW4+/M7pC3DNDj+4062BZvXoSr4ZZC1WcLvU1udUWWx7eeBxU05/t1onbi91BIXmOtaonMjJ9X4+NaMD/iTz3JK3fqILEH0yxACdvi9q+mqV3eb7H1bw81eiQJGUq57WsyXsdDkcC8ri9ujujfFg3L0aU6ajUT+s/UffvHyrS/0DB680JAS+qYKtTFnl1tKZVvd88nfqsYRXIU/H+LGnMq/dqvOobjh24z56qz1envzgbktZXau8C74aysLaPBc9Aqz6K+/wvyqs2vVMo9TVVq8EfmcOKsLE63Pbrevx54kcOnU52nghdii5aMu09rlHB228rW9Lo2GqcwTWiDnej2u8PajR+fxhP9ej+Jf3yHySpVJv+t4Vse43y3yyU5FWDO7bScOyY2n2gdeZ86vm2z2sbtdMqGd4qHWwOaGDyuDU0/JVv+nfP6Gh0XvvaDcpeHwt4xogGbrfqb369fBf2YBbrVHa8SjkalOen0xcJi16QNtRxrXvaMX7QlWwRtPm95pZthdJXjfrJOb8GFr3yN14G9ORNSLOq/GfN6vtRldrvX9KhnZeeX/71d/UzV6f2e7p1+vvdOj3tSYsKjrjjbiOwRntqzura53Xqaa3U260J21pbog9rSqfm2aVn6LvpUvtZhwrPJpa1aoejUsffL1VObL5M0iuPHqesE5MI42/iabHp/foSXT/WrYYD3WqY8cYSbq48LxYVvd+s4w+carofVFPFdjUlFnF5dX7iv+83ynogcWfUyZZbF/vvCl3tr1aRJK0tVe05v3pOBuSp3D5tfqQUXWihNv6qeK5dZdZmNQUatfvNxqnH15Zox5vd6ppWbZvK3rOqrSmg03ttU22Znqcjrnxd9PjmtRcS/Xd/oxr8jbM8a5Xrb99VQeLDGZu1q9SiDn9Ap79vm3Z8ua5MrFI5z+NqXtZpS4lduh2Qx2Wbsb9nytB3rdJwW6VsbQlPpa9T0fYKHa+u0JZYCrdsrdRPd3Xq6I1G7b+RZN/EH7NYcQUVbrk6nfLcqNfuG/XTn0zP05G/Tbaoy9wsrO3zVPx/WdXUFFFb5XbFH2LF5wJJV9j8dlkqq61S+7vN8hwrTXqMT33W4usQUMNeW9y5c4127LKp60bCHz8bVY+nWT2eOs2QbtfxJBc/VoN/6W/VCU+rTiR91qLic/9eOyZPKiNqd9l1IvHr50D+5P6Mb5/sXRXa465SR8J5ImPXYbmeXEpog3m2T1qeXH9zWDd/dEm9Fyu1/WJi4bjvnszN2mmXegKtOmRLPHECc5D3rmqdLTrkbZQn4JgcGZWxuUR70v3q8FbJ5p0qbskrUXFaYo/1zPUeJOmEPX/y8xd/jGc7anT8HyrU1Fqj7ckOW5dXkZpF3osYpkJPXrz1JTr/24CunqvQjrx1k8M9Mqx52uE8pY9r43qKZFFRjU+3LsSXtShzU6lqW7vVWVU4fbjIeoc+7m5V7T7b1KpIa63a4XKrs7tZe+KH1GWUyHW8cPK1C16N29KTiLo8Ndr+rnfBK2xmljYrcN0tV0meMpMsrLAo6Xk68puAOi8c1p6t1smAkWG1aU9Ni25VLvwElO1oUeDX1QnbLZHrgk+BCwkLLaTl6civWuTaFmub9HUqcp5VZ3ezfpw7c9sFriu6WlMSa5s1yimp0uWbPh3/k8VObirU+zdbdMZZogLrVAjNsOZph+usrgb8syy6skY76n360FUyvf0Tzee4mqfMfY26+kGpiiZef601Vmevjs/YrlVltU5lSrK8mjftvWpsRL3XGnWwpF53Jy8+rtOeC/+ozgvTP2tYJdILVfupf/rxl75ORfuqo5+LhSwUNGlhbV/g+kSXa0q1xbp0QxwthYfVeTPh8/PcOrToY5c9dt60KHOTU+ev/6N+8cPEVV0kFVbqVsv085Xl1bzoZzPQoj0LupC23NaprN6r80dKtSWubSyv5mnLvmp9fDOwwEVXYtaW6MPrbpVvim7b8mqhys/5FLhwUDl/MLP4fNvHsqlqZvmJ8+G07551Krvg1Zl9hZPfgRnWErnOeRVsr5ox7B+YyaLiylMqlqG2hk/UN9Fbv7ZEP/3NKe0pjJ2n1lq1o6pVgU/rtPN/XexLFurIp91Lfh6Eeb0yPj4+nupKLFS0B2vDVG+PSRihZu0uu6SsD27pY2fCF+qTgBq+XynP48X0uAFLbMivQztr9PUPWtVZY5ta7lySjIjajpTqdCCxZ2QlRK+UDiy4t2cJxeYy5qz4PoCpcVyZSq87X/v7X7yRDGb9PYbU4rhaHHryVqG+W5eiY7eNp9PnIRhP9ehhUL2PJaVvUM6L9A0AUxu+44/OdTRG9c//I26uwDNDw//lge5/LS18ERgAAADMB3PyVqGcN0plkV895xyynUtWwqqyxgoVrdj9WYDny8zfqBwFNOCt0tveZCUsKqqp0l56ngEAAJYdIW8VytjlVuC7Nv3yY696vghP3qPM8mqeirc59MNKp7bwYxmrSd5hXb2Zp/aWVl2/F1LfxMpfa63a8naJflBxSHsWuzIsAAAA5oSQt0plbnKodpNDtamuCDBHGVa7XG67XKmuCAAAwEvuhV54BQAAAAAwHQuvAAAAAICJEPIAAAAAwEQIeQAAAABgIoQ8AAAAADARQh4AAAAAmAghDwAAAABMhJAHAAAAACbyQoe8YV+lrLmN6k11RQCsUiE15ObrkG8k1RWRhnw6lJuvhvuprghMhePKVHrd+bK6fBpOdUXmid9jWA4cV4vzQoc8AAAAAMB0hDwAAAAAMBFCHgAAAACYCCEPAAAAAEyEkAcAAAAAJkLIAwAAAAATIeQBAAAAgIkQ8gAAAADARAh5AAAAAGAihDwAAAAAMJHvpLoCi9eq/bmtCY99T3v0W3XMcQtv7d+s31+9N8fSFWpwtarWM8fitn16K3hNv59j8T27pY7OF2/bBw/bdflSYI6ll7N9aPuV3vaL0PbFc9zCSvAcyFfiIbRq2t7+5zoY+HtdnmPx1fPZ5HPfs9jjirZPIkVtb5/jBladlf49ZsK2X+ltvxCf+w1z3AIS0ZMHAAAAACbyyvj4+HiqKwFg5fW687W//6yCHocyU10ZAHiOYV+lbCc36Gp/tYpSXRmsKNoeWBh68gAAAADARAh5AAAAAGAihDwAAAAAMBFCHgAAAACYCCEPAAAAAEyEkAcAAAAAJkLIAwAAAAATIeQBAAAAgIkQ8gAAAADARAh5AAAAAGAir4yPj4+nuhIAAAAAgKVBTx4AAAAAmAghDwAAAABMhJAHAAAAACZCyAMAAAAAEyHkAQAAAICJEPIAAAAAwEQIecBLqtedL6vLp+FUVwQAvsWwr1LW3Eb1proiWHG0PbAwhDwAAAAAMBFCHgAAAACYCCEPAAAAAEyEkAcAAAAAJkLIAwAAAAATIeQBAAAAgIkQ8gAAAADARAh5AAAAAGAihDwAAAAAMBFCHgAAAACYCCEPAAAAAEyEkAcAAAAAJkLIAwAAAAATIeQBAAAAgIkQ8gAAAADARAh5AAAAAGAihDwAAAAAMBFCHgAAAACYCCEPAAAAAEyEkAcAAAAAJkLIAwAAAAATIeQBAAAAgIkQ8gAAAADARF4ZHx8fT3UlAAAAAABLg548AAAAADARQh4AAAAAmAghDwAAAABMhJAHAAAAACZCyAMAAAAAEyHkAQAAAICJEPIAAAAAwEQIeQAAYFUb9lXKmtuo3lRXBCuOtgcWhpAHAAAAACZCyAMAAAAAEyHkAQAAAICJEPKA1coI6eLejbLaqtTxONWVAQAAwIuCkIcUGlG7K1/W3Lh/Lp+GU1CTXne+rLmVah9KwYvP5qtuNYUN6Um3rt0bmaVQSA25CfvQHVrRagIAAGB1+U6qKwAzGVG7y64TgemPZljztGVbhd6vLFVBRmpqllohNeQ65Znl2eJzAX3sWDfziddLdDzPq6Yhu/ZtTvL8qpKs7dxm6xgAACAASURBVC3KzLNr748r9f6uPGWkpapuAAAALxd68rDsRiNhdXlqtLvskvqexT+zTmWeh4r0P1SkP6Dz9lTVcJWyFOrI9QeKBJu1Z/1shQpV2z+xD71yrWT9vpWh4XC3PMcc2t8UkpHq6gAAALwkCHlYevazCk4Gj4cK3/HpzDaLFPGppz/VlUshl3dyn8T/S9qL98Kq0NWJ9xZ+oM9bD6soXRrwtOj6ahoKCwAAYGKEPCw7S2aedpbYlmZjQ0F5apyyFUbnn+XZHXrvYlDDz2Yp/2xEdz01OrjTFp2vVmjX/g986hudw2s9G1R75UZZczdq/6XwivVERW/8Gj/PbonnCibsw8KdVbp4Z7Y5f4uQZlH21iod/4EkBTSQuHjMaEQ98W2Ta9P2ihp5ZtQlNnfTHZJGw2r/YKLuG2U7UK+Ob5K89rOn6vPVx237W+Z+jobV4a7SdtvEceXUaV9Yo7McV8Y3gYR9WKHT3tDsxyEAAMAKYk4eltczQ8PfdOujXwYka5WKcxe+KeN+o3YfaNVA/GNDYXU1V6irs0JXP61WUXrck2MhNXzfKU8k/rER9XrrtDt9gyI1hc+p96Daj+zWidtScZ1Pvyi3yrLwqq8aRrhVBw80qnds6rHRSLeaKrp1/YhXnVWFS/w+DRmGJFlkmTYnb0Ttx0oT5vA91cAdvxrudOuR557O2BNqcsOt/bdD6p1sT0PD9706+q5FWTerVWSZery36YD2T2v45xjq1ol3q9QeV9wYCqntpEPt3W4FWkqVGV8+fEm79zZPOw5HI0G1feCU5X9/qNpNc3tZAACA5UJPHpZeoE62iR6TvI2y7azR3Y1ndevTwypY6OIbRkhNf9mqAVlV3nJL4XDiUNBWnfDG/6h/qq5TFfJEpBzHKV397MHUEMIrp1SWOesrSc8G1XHMoRO3/0A73J36eKkCnseZpFdpZi9dpqNlcihn8NwSTlR8FpbnJ43qlV3Hr8Ttw8+8Or7NooGLbrUn6xVbKGNEfb56NXglWSu1843pT//hq6WqbfErGIob3tniVI4MtV0LaEZn6+OQeofy5Jpo/y/9OmOX9Nirz8Jx5b7xqcETkWXTYV2eaPcvA+qss8sii4rdAUU8jlhwe6oud43aI1aVX/ArFNsnkaBfH5ZbZdyu00d3pvfh9t5q0YDyVNv+YGrYbeiWrn7g0HdZXAYAAKwChDysiAFfvX7SHFjwcDYj6JfnsVRU93Od2ZY12StkycxT+YVmladLA7+7N9W7MnRL/+A3JPtZ/areqaL1sZiWZlH2JqfOV8zSi/dsUF2nKnX0RqbKmn36xb6shVV4NeoPqD0i7ahv1JFNcftwfaGO1FSrQCF99mCxwzZbtX8iwL5h1+6TPg2sLdGHv0oM+Ou0p94t1zarMid6X9Msyt5WqmJJGh2dOTw2vVDHf+NV7UT7W6za6yiVZMiIP65GHqtXUvHBQ9oy0e6WdSpwVqhMhnr6B6fKjt7TDb+h7KpGnSm1Tq0AutaqPTU1Kpeh9i/iE6SUmZknKaKbn8cNz0zPUpHzrFzP6RwGAABYKQzXxNKzn1VwsqdEMr4Jqb3llE63Vur/fiOoX5SumfcmR4cHJWXpnTetM59Mz1fBm5ICj6d6fx5H1COpuPRtZc+5d2VQ109V6u6diHa4Azq/a4kXRHF5nz9EdJkN/+cHeiTp0TGbrMeSl7F8MyhpCd/3pip1/uqwCtKTPDccUntrq9r8AfUNzWHG45sOlb0+vU8147tJumTTM5QtqeeyV722d1WUaZGMEfV+0qx2SQX/Ju4+HpGH6pJkNDtkbZ7ldcODGlbh5PGc/QO3Pgw6dPRihWwX1yinZLfKHU7tfdvKbSIAAMCqQE8elp3ltUKVf1Cjckldt+/NHIY3Z2uUMc9xkxmW+fxBlvYertSOtVJXS4t6UnFX9uW0IouCxFbXnBh6eb9Z+4/59CjxtYf8OlTi1AlP99wC3nzkvavz5etk3G/W/q0bJ3sV9zeFZFgrdMYRd6Hg2b/Of0GdtCztaQ4qdLNV54+8rYwvfTpdWarCTQ413edGEQAAIPXoycPKyrAsaH6bJT1DUkDX7w2q3JowhHLsofq+kGS3KnvisbXrVSCpK/hAxi773F/zj0v1i08NHfpenQ6VW2Yu5vICy/zjDZICKvc8mLmoyVJLsyh7W7XOuwLa76nT6WtvT7tVxEB3q3rGpJzyFv3quF3Zk/v4+TeOn5Ohbv3SN6KcrSXK/G/3dDfyVFpr1ZZdFao95pjeq7jeqmJJw3V+dZYn6SV+jgyrTWVVNpVVSaNhr44eqNfFv/xEOz87rILF1B8AAGCR6MnDsjOGw2r/wK02STve3LigkJex2a4dknrdVWq4PTg5B8t4HFTTj6rUNibt2Ld9ahXE1zZqp1UyvFU62BzQwHCsh+WZoeGvfDrRGpr9xdY79ItfVSgn0qr935++EuUL7XW7ytOltuoaee4PanTZO50sKvpxtfakSz1nW3Q37vVG/ym6SE7Whix9N3ZAGN+E1O6ODqlcjOE7fvWM2VReU69fXPnH6CItQb8uf+BQQUZC4VdteqdQ6muqVoM/ouFvbesRdXxQI8/t6WUzXtusd96U9DjJXEIAAIAVRk8ell6gTrbcuhkPZ+xyq3ZX3Hy8+42yHmhNKBX/txW62l+tIklaW6rac371nAzIU7l9Rk/PjG2n5cn1N4d180eX1HuxUtsvJvyBy6vzz3kLlk3VuuwxdNDVqoMH/kCXr1StUI9e8p6sE/Z8nYj9t+vK1DL9w75K2U4Gphf2OGWd2ED8/EiLTe/Xl+j6sW41HOhWw4zXtut8oEVlry7du9HaEr1/vFAdZ71qanfqaqy3rOD/cCr7Yqt6PihV3gdL+HqSLBmZssin03ttOp3wXIa1RGXvV+l46cSKqVkqq61S+7vN8hwrTdqDGL+/JelfBv1qqPQn2X9SzpESevEAAEDK0ZOHZbZGOVujS+UHLpTOYxGUmbIdLQr8ulp7tlo10SGTYS2R64Iv6bYtm6rUebNVtftsylkbe3CtVTtcbnVWfvsCKJn2U/rVObsUvqSDP7qkPhP06GWWNitw3S1XSd7UqpbLLKesRq71Um9Ti7qeRB+zbKrWb1oqtMMaC+bp61S0r1of37ylD0sX93oZ2ypioWyNcl6f/j5HI93yHCvVQe/UCpuWwsMzj5NZrVNZvVfnXSUqeHWiTzp2jLcGdGvJ7zMIAAAwf6+Mj4+Pp7oSALA0DPU2O7T/YpbOdLeo/LXpz44GGrXb1apHCSvAAljdoqMWNkyN7sBLg7YHFoaePAAmEtbNi9H5fsbTkWn3zzNGB9V3L3obCUvuBgIeAAAwLebkATCRDdpUapHHH1DD9+1J583J6tCHP+Su5QAAwLzoyQNgImu0o7FbV89VaMfrU3M3JYsy80pU/kGrgr89qx1LubgMAADAKkNPHgBzSVunIke1fuGoTnVNAAAAUoKFVwAAAADARBiuCQAAAAAmQsgDAAAAABMh5AEAAACAiRDyAAAAAMBECHkAAAAAYCKEPAAAAAAwEUIe8JLqdefL6vJpONUVAQBgFsO+SllzG9Wb6ooALxhCHgAAAACYCCEPAAAAAEyEkAcAAAAAJkLIAwAAAAATIeQBAAAAgIkQ8gAAMLnRsF8NRxzabsuXNTdfeXanjnoCGhidpfz9S3pvr11N91e2nivuiV/v5cb2ydmgjKSFQmqIlZn6t1G2vRU66glq+Nn00tHVIBPLx/1zh1bgjQF42RHyAAAwLUN9Hqdse2vk6Q5r4Ens0aGQOtyV2n4s+W1UjP/6QF3hkVlCj3mM3ulWl5xyubJktHXr7pzfsKHhcFAd7grZvteo3rHlrCUAzB8hDwAAsxryq8kdkmF16PynAYXDDxXpf6hI+IE+v3JK5VmWVNcwhUZ081q35LTr+J86lC2vPgs+J+W5vNF9F9t/oe5WHdlkkSKtOvjRVO9cpqNlqtyVCklS8bnA1GM1hcv9xgCAkAcAgGk9jqhHkrY5VPb6OlnSYo+nWZS9yakzH5Qqc6Ls/cbJIYW2kwFJkudA4nDDJDelHgrKU+OUrXBiKKhD712cOYxxctijOyQ9e6o+X7322zfKmpuvwrJ6tfcnCVijYXW4q6YNMz3tC2t0xrYXYOhz3QxIe2wbZcmzaUe61HZ7tiGbCdIsynjNpuN/e0pbJBn9XyftEQWAVCHkAQBgVuutKpYkb4vawk+XfPPG/UZtt1eo4VpIw7Ehi8ZQWF3NzxnG+OxrdRz7d9p90qveoWikGg15daKsTl1P4soNdetEmUNHPd3Thpm2nXTIdsS/6FA1fKdbPSrRts1rpLRC7XRaJG9gHkM2JRmGRiXpOy9zjyiA1YiQBwCAWb3q0Bl3iTLGAjq91y5bZaPa7w/KSNYTtql6ckhh8JxdkuS68nBqmGH/Q0X6q1U0Ud4IqekvWzUgq8pbbk0OBQ3f8enMtugwxhPeyMzXaa3T0c+zVHbOp1D4oSLhoC67rNKYXzfuTQTRp+py16g9YlX5BX+0XP9DRYJ+fVhulXG7Th/dWcyMwRF9diMg2e3asjb6SMFWhyzy6trtOYThZ4aGIwE1/XWj+iTtKH17qkcUAFYBQh4AACaWva9ZoUCravflybjdqhMHtivvLadOe0NJhlTOnRH0y/NYKqr7uc5sy5ocCmrJzFP5hWaVp0sDv7ungcQ/XF+qD6/7dN6Rp4w0SWlrtGV7iSySRsdiwW30nm74DWVXNepMqTVaTpLWWrWnpkblMtT+RXjhlf/mltoDUvGuqXBmedOuMkkd3feUdNFRj3Nq2GreRtl2VurifUM5jmbV7lqz8LoAwDIg5AEAYHav2uRyexX68paunqvQFoXU9oFT9iM+PVpg0BsdHpSUpXfetM58Mj1fBW9K+urxzMC0waYtryU8VlilcP9DfexYF/3/yEN1SXrU7Jh5C4I3KtUmyQgPLnjI5qM7fvWqUO+8uW7qQYtN7zgl+bt1d5ZbS0y9v3UqKKnQ+SsB3TpXouy0bykPACvsO6muAAAAWCGWLBU5qnV53wG1H9mtE7frdPra21Phat7WKGM5pqM9+9dlvH3DoHquRVfDPF2Sr9Mznvfrxp067UjsnXN5WRkTwAuDnjwAAF42aVkqe9cpSer5enBBm7CkZ0gK6/q9JH8/9lB9X0iyW5W9kI3HFowpqPMnzAmM+9dSurB5cN8EdP1b7kc+65BNAHhBEPIAADCpYX+jGnwhPXoS1y/2zNDoNyFd/MQrSdrzxoYZfxcNcFLbL73qezLjaUlSxma7dkjqdVep4fbUYi7G46CaflSltjFpx77tCwtir9r0TqHU11StBn9kcuXOpRAdqpml49eThcegPtwlye9XzyzvGwBeBAzXBADArIyv5TnZKs8sT1u2ndXx7TMXDcnYXKI96X513K7Xblt93DMVujqxwubaUtWe86vnZECeyu0zXiNjl3sRC5Jkqay2Su3vNstzrDRp/V1XHqp203y3G1HP1ZC0vkrFecmeX6Mtdrt0o1s37jzVntL513/YVzl5n8EJPSftsp6cqDjDPgEsP3ryAAAwqcx99bp67rD2bM1TZnrswfR1KthaqtoWv4IXHckXDVlbop+2u+Uqifu7JLIdLQr8ulp7tlqVEXssw1oi1wWfAhdKF7UgiaXwsDpvtqp2n005axe+nWki99T+lZS9366CWYpkbi1RsaSu7s8ZsgnghfXK+Pj4eKorAWDl9brztb//rIIeB/d3AgCsStGe0Q1TPcgA5oSePAAAAAAwEUIeAAAAAJgIIQ8AAAAATISQBwAAAAAmwsIrAAAAAGAi9OQBAAAAgIkQ8gAAAADARAh5AAAAAGAihDwAAAAAMBFCHgAAAACYCCEPAAAAAEyEkAcAAAAAJkLIAwAAq9qwr1LW3Eb1proiWHG0PbAwhDwAAAAAMBFCHgAAAACYCCEPAAAAAEyEkAcAAAAAJkLIAwAAAAATIeQBAAAAgIkQ8gAAAADARAh5AAAAAGAihDzgpfBUHVX5suY61fZNkqefhXXxnXxZ37mkvmcrXjkAAAAsIUIe8FJYox1lTlkU0vU7gzOfDgfU/lgq+vH3VJC28rUDAADA0iHkAS8Jy2aH3l8v9V4NaCDhud7fteiRSvTDXVkpqRsAAACWDiEPeFmk5al4f5b01SfqCsc9/iykm15Dcjq0Y23KagcAAIAlQsgDXiIFpe+qSINqD0ylPOOeX21jFpWX2GRJYd0AAACwNAh5wMvktd364S7p0X8MxBZYMdR72ydjfaXKNhPxAAAAzICQB7xUYguwPPapJyzJCOpmm8GCKwAAACZCyANeMtEFWAb10e9CMoIBtbHgCgAAgKkQ8oCXTVqe9vy4UMaNbjXd8MpS7mTBFQAAABMh5AEvoexdTu143CqPL0vv/58suAIAAGAm30l1BQCkwNpS/aK/NNW1AAAAwDKgJw8AAAAATISQBwAAAAAmQsgDAAAAABMh5AEAAACAibwyPj4+nupKAAAAAACWBj15AAAAAGAihDwAAAAAMBFCHgAAAACYCCEPAAAAAEyEkAcAAAAAJkLIAwAAAAATIeQBAIBVbdhXKWtuo3pTXRGsONoeWBhCHgAAAACYCCEPAAAAAEyEkAcAAAAAJkLIAwAAAAATIeQBAAAAgIkQ8gAAAADARAh5AAAAAGAihDwAAAAAMBFCHgAAAACYCCEPAAAAAEzkO6muAIDZ9brztd+T5AnbPr0VvKbfz3E7e3ZLHZ1zLDzPbR88bNflS4E5lv6e9ui36phj6bf2b9bvr95bBduuUIOrVbXJ2iKZVdQ+89q2/c91MPD3ujzH4rPvwwpd7a9W0Ry3AwAAlhY9eQAAAABgIq+Mj4+Pp7oSAJLrdedrf/9ZBT0OZaa6MsAcDPsqZTu5gZ48LCmOq5cXbQ8sDD15AAAAAGAihDwAAAAAMBFCHgAAAACYCCEPAAAAAEyEkAcAAAAAJkLIAwAAAAATIeQBAAAAgIkQ8gAAAADARAh5AAAAAGAihDwAAAAAMJFXxsfHx1NdCQAAAADA0qAnDwAAAABMhJAHAAAAACZCyAMAAAAAEyHkAQAAAICJEPIAAAAAwEQIeQAAAABgIoQ8AAAAADARQh6wivW682V1+TSc6ooAczTsq5Q1t1G9qa4ITIXjCgDmh5AHAAAAACZCyAMAAAAAEyHkAQAAAICJEPIAAAAAwEQIeQAAAABgIoQ8AC+GoaA8NRXabd8oa26+rLZSvef2qXcoefHR+5f03l67mu6vbDUBYDUZDfvVcMSh7bZ8WXPzlWd36qgnoIHRWcq/LOfOJ369lxvbJ2eDMpIWCqkhVmbq30bZ9lboqCeo4WfTS0dXgU0sH/fPHVqBNwZEEfIArHrD3XXabq9Qw7Wg+oZiX8VPIury1Gm/Pfmy6sZ/faCu8MgsX9wAYHaG+jxO2fbWyNMd1sCT2KNDIXW4K7X9WPLb87ws587RO93qklMuV5aMtm7dnfMbNjQcDqrDXSHb9xrVO7actQQWjpAHYHV7FtIvq30aSC/UkdZbCocfKtL/UJHwAwVvtuj4toxU1xAAVp8hv5rcIRlWh85/Gph27vz8yimVZ1lSXcMUGtHNa92S067jf+pQtrz6LPiclOfyRvddbP+Fult1ZJNFirTq4EdTvXOZjpapclcqJEnF5wJTj9UULvcbAyYR8gCsbsNfa2BM0psO/XBrlixpscfTLMq02nWk5bCKJsreb5wcFmM7GZAkeQ4kDplJ0vM3FJSnxilb4cRwJofeuzhzKI4Uu0F9bBujYZ9OH7ArLzdfVptTp32RmVe/nz1Vn79R7+20RV+/0K79H/jUN8tQKQBYEo8j6pGkbQ6Vvb5u2rkze5NTZz4oVeZE2WU/d8aGPbpD0XOir177Y0PvC8vq1d6fJGCNhtXhrpo2zPS0L6zRJOfleRv6XDcD0h7bRlnybNqRLrXdnm3IZoI0izJes+n4357SFklG/9dJe0SBVCPkAVjdMjcoJ11SoFUf3R5Z8s0b9xtjQ0FDGo4NuzGGwupqfv5QnIFrVbLvrVPb/diwpichtZ106K9uPI0rNaKuUwe0+1iruiKxx8dG1Out0257pTpmmU8IAIu23qpiSfK2qC389NtKz9uCzp3PvlbHsX+n3Se96o0NvR8NeXWirE5dT+LKDXXrRJlDRz3d04aZtp10yHbEv+hQNXynWz0q0bbNa6S0Qu10WiRvYB5DNiUZhkYl6Tsvc48oVjNCHoDVLa1Qx391WAXpEbVV2lVYViPP7Ujyq7mbqieHxQTP2SVJrisPp4bK9D9UpL96qufPCKnpL1s1IKvKW6aGgobv+HRmW3QozglvJMkLtepETUDZZWfVGYz+TejXFcqRoY7ue5ropBu94dZRX0Q55W7dCk4M9Qnq1gWncsYC+qtfzvHKMQDM16sOnXGXKGMsoNN77bJVNqr9/qCMVJ47W+t09PMslZ3zKRSOng8vu6zSmF837k0E0afqcteoPWJV+QV/tFz/Q0WCfn1YbpVxu04f3VnMmXNEn90ISHa7tqyNPlKw1SGLvLp2ew5h+Jmh4UhATX/dqD5JO0rfnuoRBVYRQh6AVc+yqUqdAZ8+dNll6ferobJUhZvsOnQxoEeLmPRuBP3yPJaK6n6uM9umhoJaMvNUfqFZ5enSwO/uaWDGX2Zpj7tTnfUOFcR+JGRsLtGOdEmjo7Hg9lR3u/0y1lfpZ7WlyomVU9oa5ZRWq9YpGb576lt49QHgubL3NSsUaFXtvjwZt1t14sB25b3l1GlvKOlw9Lla8Llzfak+vO7TeUeeMtIkpa3Rlu0lskgaHYsFt9F7uuE3lF3VqDOl1mg5SVpr1Z6aGpXLUPsX4YVX/ptbag9IxbumwpnlTbvKpGkX6abxOKeGreZtlG1npS7eN5TjaFbtrjULrwuwjL6T6goAwJxk5GlPTYv2HH+qgc+v6qPmn6ujuVJvd1bo6qfVKkqf/yZHhwclZemdN60zn0zPV8GbkgKPk3zpW/XW5qyExwp1PPRQxyf//2t9dVvSWLN25zXPUoOwBoelIi4DA1gur9rkcnvlOjuoXv8VNblb1faBU+2Bs7p10aHstG/fRKIFnzs32LTltYTHCqsU7q+a+v/IQ3VJMpodss566hzUsAoX1IP26I5fvSrUmTfXTT1osekdp9Tm7dbdD0q043nreaWvU8HW3So/VKGyTeueUxBILXryALxY0tYoZ1uFPvw0EB3mk7C62fytUcYyTakwWFobwGphyVKRo1qXf39L57dZZNyu0+lri5nnvEznzmf/uozD2AfVcy0kKaTTJdPvfXfIK0l+3biTZMhm/OqaoYA6L1YT8LDq0ZMH4MWUtkZbDlZoi6dOd/u/XtBVXUt6hqSArt8bVLk1oWdu7KH6vpBktyp7QRXMUo5d0j+d0q1PncpZ0DYAYImlZansXadO3G5Vz9eDkuYfVpb13BlbMGa4zq/O8iQ9hYvxTUDXv+WaYEf3Pf0/u0rEzXnwoqMnD8DqFmrVUU9AA0NPpy0YYAxF1PFxq+5Kyv63+TMCXvRHiNT2S6/6niipjM127ZDU665Sw+2pBQmMx0E1/ahKbWPSjn3bFzipfp22bCuUvmrUT875NTDEEisAVs6wv1ENvpAePYk79zwzNPpNSBc/8UqS9ryxYcbfpfzc+apN7xRKfU3VavBHJlfuXArRoZpZOn49cVGZh4r0B/XhLkl+v3pmed/Ai4SePACr27MRdbgb1eGe5XlrhX5Wnjfj4YzNJdqT7lfH7XrtttXHPVOhqxOrxK0tVe05v3pOBuSp3C5P4jZ2uRc1qT7bUaPj/1ChptYabW9NUsDl5ea4AJaH8bU8J1tnnNcmWLad1fHtM89vqT93Zqmstkrt7zbLc6w0af1dVx6qdtN8txtRz9WQtL5KxTO/MiSt0Ra7XbrRrRt3nmpP6fzrP+yrnLzP4ISek3ZZT05UnHM+Vg49eQBWt8JK3Wo5pfKSvKkVKrVGOa+XyHXOq+BvZ1l0ZW2JftrulqskT5nPWZQl29GiwK+rtWerdXJ4Toa1RK4LPgUulC5oUYJJlkId+bRbl2tKtcXKCmwAVk7mvnpdPXdYe7bGnQPT16lga6lqW/wKzrboyio4d1oKD6vzZqtq99nizvuLFLmn9q+k7P12FcxSJHNriYoldXV/nnyVTeAF8sr4+Ph4qisBILled772959V0OPgPjx4IUSvZG+YuuIPLAGOKwCYH3ryAAAAAMBECHkAAAAAYCKEPAAAAAAwEUIeAAAAAJgIC68AAAAAgInQkwcAAAAAJkLIAwAAAAAT+f/bu//Quut8z+MvUQgUxmWgXWZpZS7RDTT1QqwDqQqZjpf6g2mr96b0rnEdjJsZO1vZ9ioVLcqM2K1Ouw4jO96rY7ADXTOzoWe3tp1btbtVD1QNXNPAtQ3b7Q0rbUFIQWjZcg9syf6RtPZH1DRNctqPjwcEyjnf8807+Srkmc/nfCPyAAAACiLyAAAACiLyAAAACiLyAAAACiLy4ArWv6k5jV2VDNd7EJig4cqqNDZtTn+9B6Eo/rv69nLtYXJEHgAAQEFEHgAAQEFEHgAAQEFEHgAAQEFEHgAAQEFEHgAAQEFEHgAAQEFEHgAAQEFEHgAAQEFEHgAAQEGuq/cAwDeoPpvWpmfPf6z1/tzetz0fTvAUy5clO3ZO8OBLPPeDj7blzdeqEzz6x1meP2XHBI++fcWifLjt4yvg3J3Z2LUl67snePgVdH0u6dxtP8uD1d/lzQke/tXfwxsneAYAYDpYyQMAACjINSMjIyP1HgLgatS/qTkrDj2fvu72zKn3MFCw4cqqtD59Y7YdWpeF9R6GGeXaw+RYyQMAACiIyAMAACiIyAMAACiIyAMAACiIyAMAACiIyAMAACiIyAMAACiIyAMAACiI/aMeOgAAEuxJREFUyAMAACiIyAMAACjINSMjIyP1HgIAAICpYSUPAACgICIPAACgICIPAACgICIPAACgICIPAACgICIPAACgICIPAACgICIPYJL6NzWnsauS4XoPAoUbrqxKY9Pm9Nd7EGacaw+TI/IAAAAKIvIAAAAKIvIAAAAKIvIAAAAKIvIAAAAKIvIAAAAKIvIAAAAKIvIAAAAKIvIAAAAKIvIAAAAKIvIAAAAKIvIAAAAKIvIAAAAKIvIAAAAKIvIAAAAKIvIAAAAKIvIAAAAKIvIAAAAKIvIAAAAKIvIAAAAKIvIAAAAKIvIAAAAKIvIAAAAKcs3IyMhIvYcAAABgaljJAwAAKIjIAwAAKIjIAwAAKIjIAwAAKIjIAwAAKIjIAwAAKIjIAwCuaMOVVWls2pz+eg/CjHPtYXJEHgAAQEFEHgAAQEFEHgAAQEFEHgAAQEFEHgAAQEFEHlAfp0/mwK7N+flfLU1LU3Mam25J6wNPpnvvUE6cHu8FR7Pjyc7ctaaS4ZmedaZ9+lp+2NScxqbmrOg5Ou4ho3ecaz7/o3Vplq3enB2DJy84eiAbLzz2vI9V6f18+r8sAGBmiDxg5tUG0/1v27Ls8S1559OhnBh9MMOf7MrGVUuzdvvxcV50PJ9u78vh/zuzo9bDgQ8qOXJzZ7qWJv3bqjk80Rd+MZQDe7Zk7X1teaQyfhwCAOUTecCMG971cjZ+UstN7c9n5779GTp0cPRj4N1s+2VHbmio94R1dHogb71+NAv+sj2P3bkk+bSSj4a+6uC2vFg9eM73r5qdL7TnptTy/tMbzlmda8n6M8ccqubFtiTpzLazj72ald+biS8OAJgJIg+YcUf+qZokWbyiPQvmnFN0s+ZlYcczeW7p7LEHjqe368yWwo50J0n12bResN3wkcoFK39ntoLe0zp2TGvu6tyQ3ou2MZ7Z9ji2XfHzvryyemz7aEtbHnmlL8PjbR39vC/dT3aktWX087fcsyav7Btv9XESBvZk66l5uecHjbn+B21ZnMH07vvKyjvfrNlZ0P58nutMkmoOH5uakQCAq4vIA2bcDTe2JUm2vt6TAyem+OSnj6Z39dhW0KEzUXcyh/f15Kmv2cZ4Yt/LWXZPZ17aM7Z99NTxvP9yZx7sHjzvuNrglqy4pzMbtw9k+NTYa4f25KXOttz18kBqlzl+///sSW1uexY3JfneD3NPW3Lgv3888S2bqaVWS5KGNFx7mcMAAFclkQfMuDn3P5Pf3Pud1PZuyLK2tjyyqZL+Y+Pl0eys7D6zpbAnXUnS9nz6Dp2zRfHQwbzRPvvsK4a3b8hTe2tpuPOZL7eCDu7PB692jG5jfP61vHNRWFaz8enXcuSWNXnzvbHX7Hk+i2clh/9YzYEzh50eTPffbE5/2vLEH97N4ODo5x98rydP3NmQw69sSu9nl/GNOT2Qt3tqabi3NQuuHf36b7uzJfn093ln8JtenOTU0fT3bMjGniRzV+WeP7+MWQCAq5bIA2betfOy/OW+9G1Zl+VNtbzf/WxW/OiWtKzckK0Dl7PtcShvv1lNZnXk737d8eVW0GsbcsOdz+Rvn21JTlXy4cDFQblwTU+q3Y/mtrljr/n+D3P/oiTHTny5Oneomt6h5O4Nm7P61nlnV8oa5rZk9ZPrsiADeW//5OevfbwrW0815KG/aDn72A2LlmZBjqa3Ol7lVfNU2zlbV1vuyopfVnJ4Vkue+M8Pj4UiAPBtc129BwC+vebc0Znf3NGZXx0byFtvvpyN3T35xcpK3nthZ95onzeJM57IkU+TLG3NwlkXP3tT8y1JBnJk+GSS8+/usnBRS64/L4pmZ/mrB7P8nEeG/9f+HEly5PHWND4+/gQNnx1NMnv8J79WLf17K6nNas+Pbj7n4cZFWXlz8os/VnPg0flZ8DVnuL6xNYtXdOaxlW256fpJjAAAFEHkAXXXMLclK5/ckpV/Xckj9z07emfIOy7jjo/XN2RabtA57t/vmyK1gbxdqSWnevLgn/eMc0Al7w8+mgXzz32sLS9W3RkTADif7ZrAleP77fnpXyeTvzNkQ/7F3CTbq+kf5y1+hw/uT9KQm/5sMittyZw/uzFJ8lD3/vPeE3jux+Calm84y/hq/7Anvae+7oiv2rIJAHA+kQfMsOPZsWlzej85mhPnRk3tZI588lpe/69JsjS3/usLXzcWcNUt+e3eo6mNu6o2P4tXzEtO9eTnT/bkwPBY6Z0+mQOVZ/Pvnx9I5q7KfZPrsOTmtjw0K9m67sl0f3I0Jy73VppnjW3VzNL83T+ME4+DlTwxNznyx2oOTOdqIgBQBNs1gRn3z4e25KnuLXlq3GcbsviF/5C7L3pP2fws/jeNeemloWxddVe2nvPM4heqZ++wuaBzU7p2dqR794Ys273h/FPMmp/V/+kybkjS0JrHNizJW4/vycYH9mTjRQdMcvtkrS9vb60lS5fktvHeS3ft/Nx2b0PSPbZl8+ZxjvlaA9l45u8MnrUlK5q2XN7cAMAVyUoeMMNmZ+WGnry4emlumz/77HvnGr43P7fdvy5vvF39ypuuLOj6fd58cmlua/zOV59+VkvW/7dd+U3Xkiz43tjZZ83OwvvX5c23K3ni1st7t96cpS+n+tamdC2Znznj3NxlMmp91WxNcvedi/JV90tZ+BcdacjR9H5gyyYA8PWuGRkZGan3EAAAX2W4siqtT9+YbYfWZWG9h2FGufYwOVbyAAAACiLyAAAACiLyAAAACiLyAAAACuLGKwAAAAWxkgcAAFAQkQcAAFAQkQcAAFAQkQcAAFAQkQcAAFAQkQcAAFAQkQcAAFAQkQcwSf2bmtPYVclwvQeBwg1XVqWxaXP66z0IM861h8kReQAAAAUReQAAAAUReQAAAAUReQAAAAUReQAAAAUReQAAAAUReQAAAAUReQAAAAUReQAAAAUReQAAAAUReQAAAAUReQAAAAUReQAAAAUReQAAAAUReQAAAAUReQAAAAUReQAAAAUReQAAAAUReQAAAAUReQAAAAUReQAAAAUReQAAAAUReQAAAAW5ZmRkZKTeQwAAADA1rOQBAAAUROQBAAAUROQBAAAUROQBAAAUROQBAAAUROQBAAAUROQBAAAUROQBAAAUROQBAAAUROQBAAAUROQBAAAUROQBAAAUROQBAAAUROQBAAAUROQBAAAUROQBTMjJ7FjTnMamjmz9bJynTw/mlR81p/FHr+XA6RkfDopy4JW70th0S36xrzbOs2f+X1yTHV/M+GhMM9cepobIA5iQ7+TulR1pyEDe2nf04qcHq+k9liz86Y+z4NqZnw5KsmDpw1mYWnr3DuSiH/W/+CC7dycND3Xk7u/WYzqmk2sPU0PkAUxQw6L2PDY36d9WzeELnuv/+1dzJEvyk3vn1WU2KMr3l+Un9ya1rXvy0QU/6Q/v3ZV3Mi+P/WVrGuozHdPJtYcpIfIAJura+Vm8Yl7y6e/zzuA5j58eyNs9taSj3W+XYUp8J4uXLEnSk+17T57z+PG8t7ua3Pxw7r65XrMxvVx7mAoiD+ASjG4lOpre6peVV/t4V7aeashDS/x2GabK9Us68tCsZMeej3PizIOfvZvearJwRVtuqudwTCvXHi6fyAO4FGNbiY78sTp2g5Va+vdWUpu7KisXSTyYMg2tWfnTecmuXXl/7CYbR/btSr9t0eVz7eGyiTyASzJ2A5Zjlbw/mKTWl7e31txwBabB6Mr5nuzedzLJUN7fNuCmG98Srj1cHpEHcIlGb8ByNL/9+4HU+qrZ6rfLMD3GVs7f2f5uhoc+Tu+nbrrxreHaw2W5rt4DAFx1rp2f5T9tyUuv78lLX/Sk4aEtfrsM02Js5byzmtdvPJoDLQ/nb91041vCtYfLYSUPYBJuuLcjdx/bku6K3y7DdBpdOd+T7i2Dufsny3JDvQdixrj2MHnXjIyMjNR7CAAAAKaGlTwAAICCiDwAAICCiDwAAICCiDwAAICCiDwAAICCiDwAAICCiDwAAICCiDwAAICCiDwAAICCiDwAAICCiDwAAICCiDwAAICCiDwAAICCiDwAAICCiDwAAICCiDwAAICCiDwAAICCiDwAAICCiDwAAICCiDwAAICCiDwAAICCiDwAAICCiDwAAICCXFfvAQCmz0A2NnWke5xnbl+xKB9u+3iC5+nMxq4tWT/eicbTen9u79ueDyd4+PJlyY6dV8C5236WB6u/y5sTPPzSvoc/zvL8KTuuunO79uO5cq6Pa3/Z53btx/E1177t+fR1t2fOBM8E9WIlDwAAoCDXjIyMjNR7CIDpMbqSd/iFat5on13vYQC4ivVvas6KQ1byuDpYyQMAACiIyAMAACiIyAMAACiIyAMAACiIyAMAACiIyAMAACiIyAMAACiIyAMAACiIyAMAACiIyAMAACjINSMjIyP1HgIAAICpYSUPAACgICIPAACgICIPAACgICIPAACgICIPAACgICIPAACgICIPKNhANjY155HK8XoPAsBVrn9Tcxq7Khmu9yAwASIPAACgICIPAACgICIPAACgICIPAL4NagN55b5b0ti6JjuO1XsYAKaTyAOAq8roDYUaz/3YNPDNL/t0T14arCVf7Mn2j92MCKBkIg8ArhDD+7ZkbefStIzFW8s9nVnb3Zfh01Nw8puX5In5Dcl3l+T+RbOn4ISTc+KT1/Lz+9ry0id1GwGgeNfVewAA+NY7fTQ7Hm/P2t0nz3v4xFBfdmzqy4nvVvNG+5kwa8n6QwezPsnoql5HuifyORpasvqt/Vk9pYNfutr/2Z93Bo/nhjrPAVAykQcAdVVL/29XjQZeY3ue+4+PZmXLvDRcm6R2PIf3VdJ7qt4zAnA1sV0TAOrpiz15/ZWhZNbS/Gbr83no1rHAS5KG2bnpzkezfunkt1cOV1ad//69plXp/fwbXrNvS9Y+0Jb5Tc1pbGrNXatfy0cXveZ4ervG3g94YjC9v+xIa0tzGptuSesDG7Ljs3MO/WTz2c/f+nQ1SdL9wAXvK2zanP5Jf5UAnMtKHgDU0fAHu/JOkgVPrMryOfWeppYD3Z1ZsWkgtbOPnczhPS/nwT07s7q3kidaGs5/ye5NWbF3IP1DX55j+JOerH24IfPeXpeFFxwOwPSzkgcAdXTk0OjK1m3NjdNy/jntr2bo0MEMHTqYvhfavv7gwd/nbzYNJHeuybb39o++bnB/PvjDmiyeNZRXNlZy5MLXHBtI/+fz0/XquxkcPJihf9yV59qSHOvJe4Njx9y67qIZuv5w8Oxjox/rsnCKv3aAbyuRBwAkSQ5UKzmcJfnVC49m4dyxJbhrG3LDrY9m/RPzk4Fq9g9f8KJZLXniv/Rk/Z1j20wbGnNf+9IktdSm4q6gAFwy2zUBgCTH80/7jyY5mrWtzVk77jFD+d/Hkpy7rfQH7Vl58/l7Mq//l3XfdwrwrWYlDwDq6Pp/NT9J8tHBoW84cvr98/+r9wQATAUreQBQRzfdclduyGAOvFHJR+3rctusek0yOzc1Jal25I1/fCaL3TAF4KplJQ8A6unm9qxuS3JsSx554Nn0fnr8y/eynTqew3tfy8Zdx2dklAV3dKQhPVn75Jb0f3ZyWt5T1zDr+iTJ1td7cuCLqT8/AFbyAKDOZmflcy+n/9+tSe9gJU/9VSVPXXDE4hfaz/57uLLq7N+aO6u7I43dY/9uez593e1jb5sbyMamjnSff3Seams++zm6/nAw628d/XfDHavyq3t3Zu3uzVmxe/PFo5537sm5ftGSLJ+1Kzv2bsiy1g3nPNOZbe6wCTAlrOQBQL3NXZIX/1TNm7/syN3zZ2d0p2RD5sxfkq4XevKr+yf/x9Avzews//X/yM5fd54zxxT77pL8qndTupbMz5y6bU0FKNs1IyMjI/UeAmB6jK5iHH6hmjfaZ+qHZABK1L+pOSsOXf5qNswEK3kAAAAFEXkAAAAFEXkAAAAFEXkAAAAFceMVAACAgljJAwAAKIjIAwAAKIjIAwAAKIjIAwAAKIjIAwAAKIjIAwAAKIjIAwAAKIjIAwo2kI1NzXmkcrzegwBwlevf1JzGrkqG6z0ITIDIAwAAKIjIAwAAKIjIAwAAKIjIAwAAKIjIAwAAKIjIAwAAKIjIAwAAKIjIAwAAKIjIAwAAKIjIAwAAKMh19R4AYLq9/3RbGp8+/7HbVyzKh9s+nuAZOrOxa0vWd0/w8Nb7c3vf9nw4wcOXL0t27LwCzt32szxY/V3enODhl/Y9/HGW50/ZcdWd27Ufz5VzfVz7yz63az+Or7n2bRM8BdSZlTwAAICCXDMyMjJS7yEAAACYGlbyAAAACiLyAAAACiLyAAAACiLyAAAACiLyAAAACiLyAAAACiLyAAAACiLyAAAACiLyAAAACiLyAAAACiLyAAAACiLyAAAACiLyAAAACiLyAAAACiLyAAAACiLyAAAACiLyAAAACvL/AaRoD8ud/yTMAAAAAElFTkSuQmCC;" vertex="1" parent="1">
          <mxGeometry x="710" y="90" width="609" height="376.09" as="geometry" />
        </mxCell>
      </root>
    </mxGraphModel>
  </diagram>
</mxfile>
